<svg width="80" height="80" viewBox="0 0 80 80" fill="none" xmlns="http://www.w3.org/2000/svg">
<path d="M60.6667 26.6666H57.3333V19.9999C57.3333 10.7999 49.8667 3.33325 40.6667 3.33325C31.4667 3.33325 24 10.7999 24 19.9999V26.6666H20.6667C17 26.6666 14 29.6666 14 33.3333V66.6666C14 70.3333 17 73.3333 20.6667 73.3333H60.6667C64.3333 73.3333 67.3333 70.3333 67.3333 66.6666V33.3333C67.3333 29.6666 64.3333 26.6666 60.6667 26.6666ZM40.6667 56.6666C37 56.6666 34 53.6666 34 49.9999C34 46.3333 37 43.3333 40.6667 43.3333C44.3333 43.3333 47.3333 46.3333 47.3333 49.9999C47.3333 53.6666 44.3333 56.6666 40.6667 56.6666ZM51 26.6666H30.3333V19.9999C30.3333 14.2999 34.9667 9.66659 40.6667 9.66659C46.3667 9.66659 51 14.2999 51 19.9999V26.6666Z" fill="#D6AF25"/>
</svg>
