<svg width="107" height="107" viewBox="0 0 107 107" fill="none" xmlns="http://www.w3.org/2000/svg">
<circle cx="42.5" cy="42.5" r="21.5" fill="white"/>
<path d="M69.1042 62.4167H65.5821L64.3338 61.2129C68.7029 56.1304 71.3333 49.5321 71.3333 42.3542C71.3333 26.3488 58.3596 13.375 42.3542 13.375C26.3488 13.375 13.375 26.3488 13.375 42.3542C13.375 58.3596 26.3488 71.3333 42.3542 71.3333C49.5321 71.3333 56.1304 68.7029 61.2129 64.3338L62.4167 65.5821V69.1042L84.7083 91.3512L91.3512 84.7083L69.1042 62.4167ZM42.3542 62.4167C31.2529 62.4167 22.2917 53.4554 22.2917 42.3542C22.2917 31.2529 31.2529 22.2917 42.3542 22.2917C53.4554 22.2917 62.4167 31.2529 62.4167 42.3542C62.4167 53.4554 53.4554 62.4167 42.3542 62.4167Z" fill="#C4C4C4"/>
<path d="M65.5822 62.4165H69.1042L91.3513 84.7082L84.7084 91.3511L62.4167 69.104V65.5819L65.5822 62.4165Z" fill="black"/>
<path d="M49.9951 37.7683L44.7488 43.0146L49.9951 48.261L48.2463 50.0098L43 44.7634L37.7537 50.0098L36.0049 48.261L41.2512 43.0146L36.0049 37.7683L37.7537 36.0195L43 41.2659L48.2463 36.0195L49.9951 37.7683Z" fill="black"/>
</svg>
