<svg width="216" height="72" viewBox="0 0 216 72" fill="none" xmlns="http://www.w3.org/2000/svg">
<path d="M96.5552 13.3389H89.6997V16.0898H95.9927V18.3398H89.6997V21.6709H96.8716V24H87.0542V11.0449H96.5552V13.3389ZM105.199 19.21C105.199 18.4717 105.029 17.8184 104.69 17.25C104.356 16.6816 103.811 16.3975 103.055 16.3975C102.147 16.3975 101.523 16.8281 101.183 17.6895C101.007 18.1465 100.919 18.7266 100.919 19.4297C100.919 20.543 101.215 21.3252 101.807 21.7764C102.158 22.04 102.574 22.1719 103.055 22.1719C103.752 22.1719 104.282 21.9023 104.646 21.3633C105.015 20.8242 105.199 20.1064 105.199 19.21ZM103.776 14.209C104.895 14.209 105.841 14.6221 106.614 15.4482C107.394 16.2744 107.783 17.4873 107.783 19.0869C107.783 20.7744 107.403 22.0605 106.641 22.9453C105.885 23.8301 104.909 24.2725 103.714 24.2725C102.952 24.2725 102.32 24.082 101.816 23.7012C101.54 23.4902 101.271 23.1826 101.007 22.7783V27.7705H98.5285V14.4199H100.928V15.835C101.197 15.4189 101.485 15.0908 101.789 14.8506C102.346 14.4229 103.008 14.209 103.776 14.209ZM111.998 13.2773H109.458V10.9658H111.998V13.2773ZM109.458 14.4199H111.998V24H109.458V14.4199ZM88.3462 34.0898H93.7603V55.3418H106.592V60H88.3462V34.0898ZM118.185 56.4668C119.65 56.4668 120.775 55.9453 121.56 54.9023C122.346 53.8594 122.738 52.377 122.738 50.4551C122.738 48.5332 122.346 47.0566 121.56 46.0254C120.775 44.9824 119.65 44.4609 118.185 44.4609C116.721 44.4609 115.59 44.9824 114.793 46.0254C114.008 47.0566 113.615 48.5332 113.615 50.4551C113.615 52.377 114.008 53.8594 114.793 54.9023C115.59 55.9453 116.721 56.4668 118.185 56.4668ZM127.994 50.4551C127.994 53.2676 127.185 55.6758 125.568 57.6797C123.951 59.6719 121.496 60.668 118.203 60.668C114.91 60.668 112.455 59.6719 110.838 57.6797C109.221 55.6758 108.412 53.2676 108.412 50.4551C108.412 47.6895 109.221 45.293 110.838 43.2656C112.455 41.2383 114.91 40.2246 118.203 40.2246C121.496 40.2246 123.951 41.2383 125.568 43.2656C127.185 45.293 127.994 47.6895 127.994 50.4551ZM142.681 47.7129C142.587 46.998 142.347 46.3535 141.96 45.7793C141.398 45.0059 140.525 44.6191 139.341 44.6191C137.654 44.6191 136.499 45.457 135.878 47.1328C135.55 48.0234 135.386 49.207 135.386 50.6836C135.386 52.0898 135.55 53.2207 135.878 54.0762C136.476 55.6699 137.601 56.4668 139.253 56.4668C140.425 56.4668 141.257 56.1504 141.749 55.5176C142.241 54.8848 142.54 54.0645 142.646 53.0566H147.761C147.644 54.5801 147.093 56.0215 146.109 57.3809C144.538 59.5723 142.212 60.668 139.13 60.668C136.048 60.668 133.78 59.7539 132.327 57.9258C130.874 56.0977 130.148 53.7246 130.148 50.8066C130.148 47.5137 130.95 44.9531 132.556 43.125C134.161 41.2969 136.376 40.3828 139.2 40.3828C141.603 40.3828 143.566 40.9219 145.089 42C146.624 43.0781 147.532 44.9824 147.814 47.7129H142.681ZM161.481 50.6836C161.165 50.8828 160.842 51.0469 160.514 51.1758C160.198 51.293 159.758 51.4043 159.196 51.5098L158.071 51.7207C157.016 51.9082 156.26 52.1367 155.803 52.4062C155.03 52.8633 154.643 53.5723 154.643 54.5332C154.643 55.3887 154.878 56.0098 155.346 56.3965C155.827 56.7715 156.407 56.959 157.087 56.959C158.165 56.959 159.155 56.6426 160.057 56.0098C160.971 55.377 161.446 54.2227 161.481 52.5469V50.6836ZM158.44 48.3457C159.366 48.2285 160.028 48.082 160.426 47.9062C161.141 47.6016 161.499 47.127 161.499 46.4824C161.499 45.6973 161.223 45.1582 160.672 44.8652C160.133 44.5605 159.337 44.4082 158.282 44.4082C157.098 44.4082 156.26 44.7012 155.768 45.2871C155.417 45.7207 155.182 46.3066 155.065 47.0449H150.231C150.337 45.3691 150.805 43.9922 151.637 42.9141C152.962 41.2266 155.235 40.3828 158.458 40.3828C160.555 40.3828 162.419 40.7988 164.047 41.6309C165.676 42.4629 166.491 44.0332 166.491 46.3418V55.1309C166.491 55.7402 166.503 56.4785 166.526 57.3457C166.561 58.002 166.661 58.4473 166.825 58.6816C166.989 58.916 167.235 59.1094 167.563 59.2617V60H162.114C161.962 59.6133 161.856 59.25 161.797 58.9102C161.739 58.5703 161.692 58.1836 161.657 57.75C160.965 58.5 160.169 59.1387 159.266 59.666C158.188 60.2871 156.969 60.5977 155.61 60.5977C153.876 60.5977 152.44 60.1055 151.303 59.1211C150.178 58.125 149.616 56.7188 149.616 54.9023C149.616 52.5469 150.524 50.8418 152.34 49.7871C153.337 49.2129 154.801 48.8027 156.735 48.5566L158.44 48.3457ZM168.627 44.584V41.0156H171.299V35.6719H176.256V41.0156H179.367V44.584H176.256V54.709C176.256 55.4941 176.355 55.9863 176.555 56.1855C176.754 56.373 177.363 56.4668 178.383 56.4668C178.535 56.4668 178.693 56.4668 178.857 56.4668C179.033 56.4551 179.203 56.4434 179.367 56.4316V60.1758L176.994 60.2637C174.627 60.3457 173.01 59.9355 172.143 59.0332C171.58 58.459 171.299 57.5742 171.299 56.3789V44.584H168.627ZM190.82 56.4668C192.284 56.4668 193.409 55.9453 194.195 54.9023C194.98 53.8594 195.372 52.377 195.372 50.4551C195.372 48.5332 194.98 47.0566 194.195 46.0254C193.409 44.9824 192.284 44.4609 190.82 44.4609C189.355 44.4609 188.224 44.9824 187.427 46.0254C186.642 47.0566 186.249 48.5332 186.249 50.4551C186.249 52.377 186.642 53.8594 187.427 54.9023C188.224 55.9453 189.355 56.4668 190.82 56.4668ZM200.628 50.4551C200.628 53.2676 199.82 55.6758 198.202 57.6797C196.585 59.6719 194.13 60.668 190.837 60.668C187.544 60.668 185.089 59.6719 183.472 57.6797C181.855 55.6758 181.046 53.2676 181.046 50.4551C181.046 47.6895 181.855 45.293 183.472 43.2656C185.089 41.2383 187.544 40.2246 190.837 40.2246C194.13 40.2246 196.585 41.2383 198.202 43.2656C199.82 45.293 200.628 47.6895 200.628 50.4551ZM214.278 40.3828C214.372 40.3828 214.448 40.3887 214.507 40.4004C214.577 40.4004 214.723 40.4062 214.946 40.418V45.5508C214.63 45.5156 214.348 45.4922 214.102 45.4805C213.856 45.4688 213.657 45.4629 213.505 45.4629C211.489 45.4629 210.135 46.1191 209.444 47.4316C209.057 48.1699 208.864 49.3066 208.864 50.8418V60H203.819V40.8398H208.6V44.1797C209.374 42.9023 210.048 42.0293 210.622 41.5605C211.559 40.7754 212.778 40.3828 214.278 40.3828Z" fill="black"/>
<mask id="mask0" mask-type="alpha" maskUnits="userSpaceOnUse" x="0" y="7" width="64" height="65">
<circle cx="32" cy="39.802" r="32" fill="#4F4F4F"/>
</mask>
<g mask="url(#mask0)">
<rect x="-23" y="-12.198" width="106" height="106" fill="#6B7C82"/>
<circle cx="32" cy="39.802" r="25.5" stroke="white" stroke-opacity="0.7" stroke-width="3"/>
<circle cx="32" cy="39.802" r="17.5" stroke="white" stroke-width="3"/>
<circle cx="32" cy="39.802" r="9.5" stroke="white" stroke-width="3"/>
<path d="M31.5 41.802V12.802H24.5L14.5 17.302L7.5 26.302L31.5 41.802Z" fill="#6B7C82"/>
<path d="M53.204 22.9687L31.5 39.3021L31.5 12.8021C36.7235 12.8021 44.4506 13.3099 53.204 22.9687Z" fill="white" fill-opacity="0.75"/>
<circle cx="9.56152" cy="27.6584" r="1.5" fill="white"/>
<circle cx="16.348" cy="31.9739" r="1.5" fill="white"/>
<circle cx="23.1838" cy="36.302" r="1.5" fill="white"/>
<path d="M33.0219 39.3365L8.60205 22.8938L1.62523 35.6164L5.27907 50.8015L15.9894 65.5761L33.0219 39.3365Z" fill="url(#paint0_linear)"/>
<circle cx="33.5" cy="40.302" r="4.5" fill="#2E383E"/>
<circle cx="32.4999" cy="39.3021" r="4.03504" fill="white"/>
<path d="M32.416 39.7219L52 23.8021" stroke="#2E383E" stroke-width="3" stroke-linecap="round" stroke-linejoin="round"/>
</g>
<defs>
<linearGradient id="paint0_linear" x1="17.6311" y1="25.7667" x2="26.5308" y2="50.5694" gradientUnits="userSpaceOnUse">
<stop stop-color="#6B7C82"/>
<stop offset="1" stop-color="#6B7C82" stop-opacity="0"/>
</linearGradient>
</defs>
</svg>
